<?xml version="1.0" encoding="utf-8"?>
<!-- Generator: Adobe Illustrator 15.0.2, SVG Export Plug-In . SVG Version: 6.00 Build 0)  -->
<!DOCTYPE svg PUBLIC "-//W3C//DTD SVG 1.1//EN" "http://www.w3.org/Graphics/SVG/1.1/DTD/svg11.dtd">
<svg version="1.1" id="Layer_1" xmlns="http://www.w3.org/2000/svg" xmlns:xlink="http://www.w3.org/1999/xlink" x="0px" y="0px"
	 width="141.747px" height="117.521px" viewBox="347.429 235.656 141.747 117.521"
	 enable-background="new 347.429 235.656 141.747 117.521" xml:space="preserve">
<g>
	<g>
		<path d="M355.666,328.845h-5.805v9.246h5.631v2.225h-5.631v10.289h5.805v2.225h-8.237v-26.209h8.237V328.845z"/>
		<path d="M364.913,352.83h-2.155l-5.283-26.209h2.502l3.441,19.082c0.139,0.662,0.278,2.364,0.417,3.547h0.14
			c0.104-1.183,0.243-2.92,0.349-3.547l3.406-19.082h2.468L364.913,352.83z"/>
		<path d="M380.936,328.845h-5.805v9.246h5.631v2.225h-5.631v10.289h5.805v2.225h-8.236v-26.209h8.236V328.845z"/>
		<path d="M384.447,352.83v-26.209h2.605c3.649,0,7.16,0.277,7.16,6.674c0,3.336-0.729,6.604-4.936,6.744l5.805,12.791h-2.572
			l-5.562-12.826h-0.069v12.826H384.447L384.447,352.83z M386.88,338.021h0.869c3.406,0,3.963-1.182,3.963-4.623
			c0-4.137-1.252-4.554-4.345-4.554h-0.487V338.021z"/>
		<path d="M407.318,352.1c-0.903,0.625-2.189,1.077-3.337,1.077c-6.152,0-7.057-8.029-7.057-12.514c0-4.24,0.14-14.392,7.299-14.392
			c0.975,0,2.294,0.244,3.095,0.835v2.676c-0.975-0.66-1.843-1.146-3.06-1.146c-4.241,0-4.832,6.151-4.832,11.019
			c0,3.059,0,11.158,4.658,11.158c1.182,0,2.294-0.521,3.232-1.184L407.318,352.1L407.318,352.1z"/>
		<path d="M422.542,339.725c0,4.901-0.348,13.452-6.431,13.452c-5.735,0-6.431-7.334-6.431-13.452c0-6.64,0.868-13.452,6.431-13.452
			C422.021,326.272,422.542,333.955,422.542,339.725z M412.184,339.725c0,4.623,0.175,11.089,3.929,11.089
			c3.755,0,3.928-6.466,3.928-11.089s-0.173-11.088-3.928-11.088C412.357,328.462,412.184,335.102,412.184,339.725z"/>
		<path d="M436.863,352.83h-2.119l-5.91-17.623c-0.383-1.078-0.59-2.261-0.904-3.373h-0.139c0.104,1.703,0.279,3.373,0.279,5.076
			v15.92h-2.121v-26.209h2.121l6.014,18.213c0.312,0.904,0.555,1.809,0.799,2.713h0.104c-0.068-1.147-0.242-2.33-0.242-3.478
			v-17.448h2.119V352.83L436.863,352.83z"/>
		<path d="M451.984,352.83h-2.121l-5.908-17.623c-0.383-1.078-0.592-2.261-0.904-3.373h-0.139c0.104,1.703,0.277,3.373,0.277,5.076
			v15.92h-2.119v-26.209h2.119l6.014,18.213c0.312,0.904,0.557,1.809,0.799,2.713h0.105c-0.07-1.147-0.244-2.33-0.244-3.478v-17.448
			h2.121V352.83L451.984,352.83z"/>
		<path d="M464.427,328.845h-5.805v9.246h5.631v2.225h-5.631v10.289h5.805v2.225h-8.236v-26.209h8.236V328.845z"/>
		<path d="M477.566,352.1c-0.902,0.625-2.189,1.077-3.338,1.077c-6.15,0-7.055-8.029-7.055-12.514c0-4.24,0.139-14.392,7.299-14.392
			c0.975,0,2.293,0.244,3.094,0.835v2.676c-0.975-0.66-1.842-1.146-3.059-1.146c-4.242,0-4.832,6.151-4.832,11.019
			c0,3.059,0,11.158,4.658,11.158c1.182,0,2.293-0.521,3.232-1.184V352.1L477.566,352.1z"/>
		<path d="M489.175,328.845h-3.928v23.984h-2.434v-23.984h-3.928v-2.225h10.289V328.845L489.175,328.845z"/>
	</g>
</g>
<g>
	<polygon fill="#009FE3" points="389.197,289.937 393.573,293.397 403.549,290.65 403.421,285.832 	"/>
	<polygon fill="#009FE3" points="423.087,280.143 412.423,283.224 412.423,288.158 423.076,285.226 	"/>
	<polygon fill="#0069B4" points="444.818,295.485 423.087,280.143 423.076,285.226 440.087,296.949 	"/>
	<polygon fill="#83D0F5" points="389.029,286.773 389.197,289.937 403.421,285.832 403.344,282.947 	"/>
	<polygon fill="#83D0F5" points="420.221,278.378 412.383,280.487 412.423,283.224 423.087,280.143 	"/>
	<polygon fill="#83D0F5" points="427.433,278.84 444.955,290.142 444.818,295.485 423.087,280.143 	"/>
	<polygon fill="#009FE3" points="382.031,253.596 387.255,257.15 389.197,289.937 384.064,291.184 	"/>
	<polygon fill="#83D0F5" points="412.084,309.541 448.556,297.936 444.818,295.485 412.038,305.63 	"/>
	<polygon fill="#0069B4" points="444.818,295.485 445.751,258.986 448.703,259.607 448.556,297.936 	"/>
	<polygon fill="#83D0F5" points="384.064,291.184 389.197,289.937 404.516,302.052 404.686,308.154 	"/>
	<g>
		<polygon fill="none" points="382.031,253.596 384.064,291.184 404.686,308.154 403.576,268.299 		"/>
		<path fill="#0069B4" d="M406.72,265.155l-27.278-18.956l2.127,46.976l26.076,22.655L406.72,265.155z M384.064,291.184
			l-2.033-37.588l21.546,14.703l1.109,39.855L384.064,291.184z"/>
	</g>
	<polygon fill="#009FE3" points="423.072,238.607 386.932,247.03 392.467,250.791 423.089,242.949 	"/>
	<polygon fill="#0069B4" points="423.072,242.953 440.068,253.489 445.835,251.931 423.072,238.607 	"/>
	<g>
		<g>
			<g>
				<g>
					<g>
						<g>
							<polygon fill="#83D0F5" points="424.568,235.656 379.441,246.198 406.72,265.155 419.602,261.789 419.602,259.014 
								408.847,261.918 386.932,247.03 423.087,238.616 445.835,251.931 428.08,256.725 428.08,259.573 453.789,252.856 							"/>
						</g>
					</g>
				</g>
			</g>
		</g>
	</g>
	<g>
		<path fill="#009FE3" d="M428.08,259.573c0,1.863,0,3.673,0,5.536l20.623-5.503l-0.146,38.329l-36.472,11.605l-0.462-40.041
			l7.98-2.143c0-1.863,0-3.707,0-5.569l-12.882,3.366l0.926,50.674l45.126-14.425l1.016-48.547L428.08,259.573z"/>
	</g>
	<polygon fill="#0069B4" points="420.246,243.677 420.221,278.378 423.087,280.143 423.072,242.953 	"/>
	<polygon fill="#009FE3" points="427.433,245.657 427.433,278.84 423.087,280.143 423.072,242.953 	"/>
</g>
</svg>
